<svg width="72" height="68" viewBox="0 0 72 68" fill="none" xmlns="http://www.w3.org/2000/svg">
<path d="M63.1785 0.557163C68.467 3.00321 62.5896 10.694 65.992 15.2624C69.3574 19.8307 71.0216 25.766 70.5778 31.4494C70.171 37.1689 67.6562 42.6005 64.4018 47.3847C61.1473 52.1689 57.0793 56.2696 52.2346 58.8235C47.3899 61.3775 41.6946 62.3487 36.1843 62.1329C30.6369 61.9171 25.2005 60.4782 19.9491 58.1761C14.6606 55.8739 9.55704 52.6365 6.78337 48.1041C4.0097 43.5358 3.52893 37.6005 3.6029 31.7372C3.63988 25.8379 4.19461 20.0106 6.63544 14.8667C9.07627 9.72282 14.7346 5.53718 19.9491 3.05516C25.1636 0.537179 31.7271 3.47882 37.4964 4.05436C44.2674 4.72984 57.927 -1.92485 63.1785 0.557163Z" fill="#1B1B1B"/>
<path d="M47.7693 13.5467C53.0578 15.9928 59.5078 15.69 62.9102 20.2584C66.2756 24.8267 67.9398 30.762 67.496 36.4454C67.0892 42.1648 64.5744 47.5965 61.32 52.3807C58.0655 57.1648 53.9975 61.2656 49.1528 63.8195C44.3081 66.3735 32.7339 60.725 27.2236 60.5092C21.6762 60.2934 23.2295 69.8057 17.978 67.5036C12.7265 65.2014 12.7969 61.3215 10.787 58.0112C8.01333 53.4428 -0.0734605 47.8873 0.000504041 42.024C2.56872 31.5324 0.127888 25.4023 2.56872 20.2584C5.00955 15.1145 8.65436 12.4886 13.8689 10.0066C19.0834 7.52455 17.8588 12.9712 23.6281 13.5467C29.3973 14.0863 42.5178 11.0647 47.7693 13.5467Z" fill="#5AC5EC"/>
<path d="M53.8357 12.7528C58.8591 15.0747 65.0831 11.7082 68.315 16.0448C71.5117 20.3813 71.7514 32.4549 71.3298 37.85C70.9434 43.2792 67.2972 46.4754 64.2058 51.0168C61.1145 55.5582 58.5078 61.4106 53.906 63.8349C49.3041 66.2593 37.5941 67.7085 32.36 67.5036C27.0907 67.2987 29.6436 62.1949 24.6553 60.0096C19.6319 57.8242 13.3674 57.9618 10.7328 53.6595C8.09812 49.323 11.744 44.5921 11.8142 39.0264C11.8494 33.4265 8.27376 26.9916 10.5923 22.1088C12.9108 17.2259 17.0208 12.9918 21.974 10.6358C26.9271 8.24558 32.7234 7.69925 38.2034 8.24558C43.6835 8.75777 48.8474 10.3968 53.8357 12.7528Z" fill="#FFBB38"/>
<path d="M19.8859 46.7482L19.194 47.0376H19.194L19.8859 46.7482ZM19.0541 33.6239L19.7767 33.8249L19.0541 33.6239ZM55.9387 33.6239L55.2162 33.8249L55.9387 33.6239ZM55.1069 46.7482L55.7988 47.0376L55.1069 46.7482ZM42.3778 55.6439L42.265 54.9024L42.3778 55.6439ZM32.615 55.6439L32.7278 54.9024L32.615 55.6439ZM29.4813 24.7761L29.3358 24.0403L29.4813 24.7761ZM45.5116 24.7761L45.6571 24.0403H45.6571L45.5116 24.7761ZM30.8203 55.3709L30.7075 56.1123H30.7075L30.8203 55.3709ZM20.1086 47.2805L20.8005 46.9911L20.8005 46.9911L20.1086 47.2805ZM44.1725 55.3709L44.2853 56.1123L44.1725 55.3709ZM54.8843 47.2806L54.1923 46.9912L54.8843 47.2806ZM46.1734 24.907L46.0279 25.6427L46.0279 25.6427L46.1734 24.907ZM28.8195 24.907L28.965 25.6427L28.8195 24.907ZM26.305 24.3761C26.305 24.7903 26.6408 25.1261 27.055 25.1261C27.4692 25.1261 27.805 24.7903 27.805 24.3761H26.305ZM27.055 23.67H26.305H27.055ZM47.9377 23.67L47.1877 23.67V23.67H47.9377ZM47.1877 24.3761C47.1877 24.7903 47.5235 25.1261 47.9377 25.1261C48.3519 25.1261 48.6877 24.7903 48.6877 24.3761H47.1877ZM34.744 14.3757L34.5667 13.6469V13.6469L34.744 14.3757ZM40.2488 14.3757L40.4261 13.6469L40.2488 14.3757ZM28.965 25.6427L29.6269 25.5118L29.3358 24.0403L28.674 24.1712L28.965 25.6427ZM45.366 25.5118L46.0279 25.6427L46.3189 24.1712L45.6571 24.0403L45.366 25.5118ZM44.0597 54.6294L42.265 54.9024L42.4906 56.3854L44.2853 56.1123L44.0597 54.6294ZM32.7278 54.9024L30.9331 54.6294L30.7075 56.1123L32.5022 56.3854L32.7278 54.9024ZM54.415 46.4588L54.1923 46.9912L55.5762 47.57L55.7988 47.0376L54.415 46.4588ZM20.8005 46.9911L20.5778 46.4588L19.194 47.0376L19.4166 47.5699L20.8005 46.9911ZM20.5778 46.4588C18.8926 42.4296 18.6129 38.0092 19.7767 33.8249L18.3316 33.423C17.077 37.9335 17.3794 42.6994 19.194 47.0376L20.5778 46.4588ZM55.2162 33.8249C56.38 38.0092 56.1003 42.4297 54.415 46.4588L55.7988 47.0376C57.6134 42.6994 57.9159 37.9335 56.6613 33.4229L55.2162 33.8249ZM42.265 54.9024C39.1068 55.3829 35.886 55.3829 32.7278 54.9024L32.5022 56.3854C35.8099 56.8885 39.1828 56.8885 42.4906 56.3854L42.265 54.9024ZM29.6269 25.5118C34.8156 24.4854 40.1773 24.4854 45.366 25.5118L45.6571 24.0403C40.2762 22.9759 34.7167 22.9759 29.3358 24.0403L29.6269 25.5118ZM30.9331 54.6294C26.3231 53.9281 22.4813 51.0095 20.8005 46.9911L19.4166 47.5699C21.3133 52.1044 25.6168 55.3379 30.7075 56.1123L30.9331 54.6294ZM44.2853 56.1123C49.376 55.3379 53.6795 52.1044 55.5762 47.57L54.1923 46.9912C52.5116 51.0096 48.6697 53.9281 44.0597 54.6294L44.2853 56.1123ZM46.0279 25.6427C50.532 26.5337 54.074 29.7186 55.2162 33.8249L56.6613 33.4229C55.3557 28.7292 51.3352 25.1635 46.3189 24.1712L46.0279 25.6427ZM28.674 24.1712C23.6577 25.1635 19.6371 28.7292 18.3316 33.423L19.7767 33.8249C20.9189 29.7186 24.4609 26.5337 28.965 25.6427L28.674 24.1712ZM27.805 24.3761V23.67H26.305V24.3761H27.805ZM47.1877 23.67V24.3761H48.6877V23.67H47.1877ZM34.9213 15.1044C36.6096 14.6936 38.3831 14.6936 40.0714 15.1044L40.4261 13.6469C38.5047 13.1795 36.488 13.1795 34.5667 13.6469L34.9213 15.1044ZM48.6877 23.67C48.6877 18.9205 45.2591 14.8229 40.4261 13.6469L40.0714 15.1044C44.2953 16.1321 47.1877 19.6752 47.1877 23.67L48.6877 23.67ZM27.805 23.67C27.805 19.6752 30.6975 16.1321 34.9213 15.1044L34.5667 13.6469C29.7336 14.8228 26.305 18.9205 26.305 23.67H27.805Z" fill="#363853"/>
<path d="M37.4965 38.5267L37.4965 43.1897" stroke="#363853" stroke-width="1.5" stroke-linecap="round"/>
</svg>
