<svg width="375" height="134" viewBox="0 0 375 134" preserveAspectRatio="none" fill="none" xmlns="http://www.w3.org/2000/svg">
<path d="M-2 88.7973C95 118.297 49 73.2973 156 88.7973C263 104.297 256 17.7973 303 4.29729C340.6 -6.50271 425 11.7973 462.5 22.2973" stroke="#C1BFFA" stroke-width="2"/>
<path d="M-2 99.869C95 129.369 49 84.369 156 99.869C263 115.369 256 28.869 303 15.369C340.6 4.569 425 22.869 462.5 33.369" stroke="#5AC5EC" stroke-width="2"/>
<path d="M-2 110.941C95 140.441 49 95.4407 156 110.941C263 126.441 256 39.9407 303 26.4407C340.6 15.6407 425 33.9407 462.5 44.4407" stroke="#F9E450" stroke-width="2"/>
<path d="M-2 122.012C95 151.512 49 106.512 156 122.012C263 137.512 256 51.0124 303 37.5124C340.6 26.7124 425 45.0124 462.5 55.5124" stroke="#FFBB38" stroke-width="2"/>
</svg>
